# File created by Blade
# Date/Time:  Mon Nov 18 17:26:10 2013
# Frame Rate: 100.000 fps
#------------------------------------------------------
:FULLY-SPECIFIED
:DEGREES
94
root -40.000105 -3.001340 40.600874 8.173803 -0.102799 20.505840
Spine 20.739461 -1.901678 1.418743
Spine1 7.446062 -0.665197 3.148398
Spine2 -22.091058 -1.831398 -1.649601
NeckDummy -0.104170 0.347346 0.917105 13.602278 0.459030 -2.075105
Neck 3.663748 -11.063892 41.135214
Head -0.261586 -0.149654 0.094942 -2.335560 -3.503172 -1.220919
LeftShoulderDummy -0.134530 0.322003 0.916650 13.599964 0.339346 -1.910887
LeftShoulder 8.818828 -8.091189 21.128832
LeftArm 9.148354 42.976521 15.331976
LeftForeArm 48.315900
LeftForeArmRoll 21.109505
LeftHand -34.695776 -25.023249 13.973583
LeftHandThumb1 15.456124 3.444234
LeftHandIndex1 -0.421309 38.422990
LeftHandPinky1 0.859880 58.068097
RightShoulderDummy -0.113582 0.404954 0.909691 13.567720 -0.425785 2.111663
RightShoulder 11.172437 1.955447 13.375227
RightArm -4.920045 55.594818 15.905759
RightForeArm 103.488126
RightForeArmRoll 18.762665
RightHand -45.389938 -24.503455 17.150206
RightHandThumb1 10.860474 5.132903
RightHandIndex1 5.043201 25.785676
RightHandPinky1 2.986162 38.813520
LeftUpLeg -14.455237 20.881948 -38.347788
LeftLeg 39.385961
LeftFoot -0.152380 -0.698020 -1.158642 -26.223324 25.218230 -1.336414
LeftToeBase -2.392583
RightUpLeg -10.836174 18.719427 -31.600712
RightLeg 46.243472
RightFoot -0.666430 0.726758 0.785593 -19.095450 11.165935 -18.881769
RightToeBase -0.098990
95
root -39.804841 -3.036792 40.482564 8.277343 -0.356113 20.181910
Spine 20.892956 -2.050259 1.481833
Spine1 7.494655 -0.683729 3.250373
Spine2 -22.071449 -1.799667 -1.577725
NeckDummy -0.103378 0.350727 0.916887 13.596948 0.398752 -2.006327
Neck 3.510160 -11.190327 40.946298
Head -0.271816 -0.136010 0.111058 -2.592736 -3.542884 -1.357000
LeftShoulderDummy -0.133935 0.327063 0.917806 13.594710 0.276403 -1.831289
LeftShoulder 8.850584 -8.142326 21.132365
LeftArm 9.323714 42.852480 15.267503
LeftForeArm 48.592547
LeftForeArmRoll 21.081894
LeftHand -34.645554 -24.732584 13.923124
LeftHandThumb1 14.896572 3.387886
LeftHandIndex1 -0.322387 38.052033
LeftHandPinky1 1.052703 57.652068
RightShoulderDummy -0.111848 0.406906 0.908227 13.562451 -0.367616 2.042764
RightShoulder 11.191430 1.889111 13.425588
RightArm -4.778223 55.896359 16.100598
RightForeArm 103.514658
RightForeArmRoll 19.172132
RightHand -45.329597 -24.177235 17.003454
RightHandThumb1 10.804255 5.450134
RightHandIndex1 5.723339 25.925141
RightHandPinky1 1.928218 38.300574
LeftUpLeg -13.680044 21.155817 -38.968882
LeftLeg 40.110852
LeftFoot -0.154951 -0.669636 -1.212904 -25.776157 24.474580 -1.507875
LeftToeBase -2.119062
RightUpLeg -11.220440 18.669384 -31.723885
RightLeg 45.866220
RightFoot -0.660879 0.727935 0.776276 -18.872949 11.115716 -18.511786
RightToeBase -0.487125
96
root -39.610435 -3.062965 40.349617 8.466964 -0.545686 19.953995
Spine 21.021176 -2.226024 1.519195
Spine1 7.536842 -0.720837 3.285287
Spine2 -22.078072 -1.736565 -1.526254
NeckDummy -0.100406 0.349389 0.917628 13.581175 0.360854 -1.941903
Neck 3.363241 -11.296360 40.721275
Head -0.275147 -0.123728 0.121424 -2.772679 -3.596271 -1.354787
LeftShoulderDummy -0.132288 0.326720 0.919551 13.579957 0.235236 -1.766331
LeftShoulder 8.881861 -8.117339 21.085345
LeftArm 9.655866 42.760290 15.361246
LeftForeArm 48.742680
LeftForeArmRoll 21.129006
LeftHand -34.547677 -24.462207 13.877810
LeftHandThumb1 14.917853 3.259535
LeftHandIndex1 -0.159214 37.886933
LeftHandPinky1 1.038766 57.448452
RightShoulderDummy -0.107492 0.404145 0.908395 13.547088 -0.334197 1.985629
RightShoulder 11.227854 1.848541 13.486555
RightArm -4.573080 56.301306 16.374659
RightForeArm 103.467576
RightForeArmRoll 19.499275
RightHand -45.143742 -23.790534 16.642358
RightHandThumb1 10.495240 5.848275
RightHandIndex1 6.573246 25.826163
RightHandPinky1 0.999025 38.142113
LeftUpLeg -12.786152 21.335086 -39.859985
LeftLeg 40.985149
LeftFoot -0.136870 -0.666356 -1.275346 -25.184413 23.559508 -1.774351
LeftToeBase -1.707231
RightUpLeg -11.545356 18.723995 -31.894303
RightLeg 45.448102
RightFoot -0.678404 0.721326 0.753829 -19.434980 11.291073 -18.252771
RightToeBase -0.078952
97
root -39.428205 -3.080228 40.211113 8.706923 -0.707225 19.791822
Spine 21.140187 -2.468531 1.567995
Spine1 7.586369 -0.770679 3.297352
Spine2 -22.115839 -1.601738 -1.508936
NeckDummy -0.094475 0.345767 0.918383 13.612381 0.364962 -1.953294
Neck 3.121717 -11.343265 40.396211
Head -0.280655 -0.115104 0.138089 -3.026690 -3.656550 -1.377983
LeftShoulderDummy -0.127530 0.323158 0.920261 13.610757 0.235286 -1.776816
LeftShoulder 8.823765 -8.025479 21.002499
LeftArm 10.073546 42.645090 15.532296
LeftForeArm 48.876505
LeftForeArmRoll 21.318436
LeftHand -34.481890 -24.164311 13.764643
LeftHandThumb1 14.981107 3.184108
LeftHandIndex1 0.163642 37.698132
LeftHandPinky1 1.053846 57.144509
RightShoulderDummy -0.100176 0.400991 0.909258 13.577495 -0.341960 2.002134
RightShoulder 11.262741 1.728432 13.495545
RightArm -4.266507 56.877879 16.660681
RightForeArm 103.403815
RightForeArmRoll 20.199267
RightHand -45.084083 -23.369979 15.947365
RightHandThumb1 10.186689 6.588356
RightHandIndex1 8.006373 25.535251
RightHandPinky1 0.104788 38.753379
LeftUpLeg -11.747827 21.532656 -40.902848
LeftLeg 41.934688
LeftFoot -0.098562 -0.697417 -1.328975 -24.606535 22.449769 -2.058154
LeftToeBase -1.286092
RightUpLeg -11.765271 18.821906 -32.140084
RightLeg 45.062508
RightFoot -0.695133 0.739108 0.749308 -19.501611 11.187118 -17.984643
RightToeBase -0.093918
